<svg width="789" height="375" viewBox="0 0 789 375" fill="none" xmlns="http://www.w3.org/2000/svg">
<path d="M292.09 194.304L494.317 32.8597L618.799 218.788L298.756 205.718L292.09 194.304Z" fill="#4B4028"/>
<path d="M616.77 218.788C711.89 218.788 789 169.811 789 109.394C789 48.9773 711.89 0 616.77 0C521.65 0 444.54 48.9773 444.54 109.394C444.54 169.811 521.65 218.788 616.77 218.788Z" fill="#78705E"/>
<path d="M256.296 200.451C256.296 200.451 243.996 213.751 203.496 201.351L203.296 198.351C203.296 191.551 203.896 188.651 208.096 184.351C208.696 184.351 208.296 184.351 208.896 184.351C254.896 185.151 298.496 164.751 293.796 135.851C290.496 115.351 275.796 105.751 248.596 98.6512C242.896 84.9512 234.596 73.8512 224.996 65.0512C237.696 60.0512 254.296 53.0512 258.796 49.2512C266.196 42.9512 267.696 32.4512 262.096 25.9512C256.496 19.4512 245.996 19.3512 238.596 25.6512C233.996 29.6512 223.796 46.4512 216.896 58.3512C199.696 45.9512 179.396 40.0512 161.296 40.0512C128.196 40.0512 98.1956 56.4512 81.7956 81.1512C65.3956 69.1512 41.0956 51.9512 32.3956 49.2512C18.6956 45.0512 4.59563 51.4512 0.89563 63.4512C-2.80437 75.4512 5.29564 88.6512 18.9956 92.8512C27.2956 95.3512 54.5956 94.9512 74.7956 94.1512C70.3956 104.451 68.2956 115.651 68.8956 127.451C70.9956 168.651 102.796 172.551 108.896 201.651C94.8956 208.251 51.7956 231.251 45.2956 267.151C45.2956 267.151 43.5956 277.751 51.3956 279.451C51.3956 279.451 60.8956 282.751 65.8956 271.651C65.8956 271.651 71.9956 276.651 76.4956 272.751C76.4956 272.751 82.5956 266.651 73.1956 259.951C73.1956 259.951 71.5956 241.951 107.496 220.451L102.296 284.151C101.296 296.151 101.996 290.251 100.696 304.051L94.8956 374.751L132.896 374.151C132.896 374.151 144.496 373.951 143.896 368.151C143.496 364.851 137.496 363.751 131.596 362.551C131.596 362.551 145.496 363.851 145.996 358.051C146.496 351.951 137.396 351.951 133.196 350.751C133.196 350.751 144.996 350.551 145.496 346.351C146.196 341.051 140.796 339.751 132.996 339.251L134.096 301.351C146.296 306.451 161.596 309.051 178.596 303.651L177.096 374.151L214.196 373.751C214.196 373.751 224.096 374.451 223.096 366.851C222.696 363.551 216.796 362.551 210.696 361.551C210.696 361.551 224.496 362.551 224.796 356.751C225.096 350.651 216.196 350.851 211.896 349.751C211.896 349.751 223.396 349.351 223.896 345.051C224.496 340.251 219.996 337.351 211.396 338.251L204.496 218.451C224.896 224.751 256.896 230.651 280.296 216.151C280.296 216.151 289.296 210.251 285.296 203.351C285.396 203.551 276.096 185.851 256.296 200.451Z" fill="#C23A29"/>
<path d="M239.296 169.251C266.413 169.251 288.396 155.014 288.396 137.451C288.396 119.889 266.413 105.651 239.296 105.651C212.178 105.651 190.196 119.889 190.196 137.451C190.196 155.014 212.178 169.251 239.296 169.251Z" fill="#F8BF2F"/>
<path d="M129.019 238.99C128.073 266.091 141.534 288.557 159.086 289.17C176.638 289.783 191.634 268.31 192.581 241.21C193.527 214.109 180.065 191.643 162.513 191.03C144.962 190.417 129.966 211.89 129.019 238.99Z" fill="#F8BF2F"/>
<path d="M248.996 133.251C259.599 133.251 268.196 128.461 268.196 122.551C268.196 116.642 259.599 111.851 248.996 111.851C238.392 111.851 229.796 116.642 229.796 122.551C229.796 128.461 238.392 133.251 248.996 133.251Z" fill="#C23A29"/>
<path d="M239 155C251.598 146.686 259.443 145.062 275 148.973" stroke="#C33C29" stroke-width="3"/>
<path d="M102.2 292.9C102.2 292.9 79.4 295.1 67 277.8C67 277.8 88.5 290.3 103.8 273L102.2 292.9Z" fill="#C33C29"/>
<path d="M199 88C202.314 88 205 85.3137 205 82C205 78.6863 202.314 76 199 76C195.686 76 193 78.6863 193 82C193 85.3137 195.686 88 199 88Z" fill="#F6BE2E"/>
<path d="M153 101C156.314 101 159 98.3137 159 95C159 91.6863 156.314 89 153 89C149.686 89 147 91.6863 147 95C147 98.3137 149.686 101 153 101Z" fill="#F6BE2E"/>
<path d="M247.585 210.127L312.861 173.495L326.137 210.127L253.532 228C253.532 228 244.681 222.682 247.585 210.127Z" fill="#F8BF2F"/>
<path d="M272.337 194.99C272.337 194.99 282.064 204.327 276.644 208.061C274.977 209.128 267.334 210.329 260.803 201.792L272.337 194.99Z" fill="#C23A29"/>
<path d="M332.46 185.207C336.476 195.641 334.122 206.528 327.199 209.703C320.276 212.879 311.553 206.982 307.538 196.548C303.523 186.114 305.876 175.227 312.799 172.052C319.722 168.876 328.445 174.773 332.46 185.207Z" fill="#C23A29"/>
<path d="M500.753 136.659V122.128L537.187 64.7273H549.716V84.8409H542.301L519.332 121.19V121.872H571.108V136.659H500.753ZM542.642 152V132.227L542.983 125.793V64.7273H560.284V152H542.642ZM617.621 153.918C610.291 153.889 603.984 152.085 598.7 148.506C593.445 144.926 589.396 139.741 586.555 132.952C583.743 126.162 582.351 117.994 582.379 108.449C582.379 98.9318 583.785 90.821 586.598 84.1165C589.439 77.4119 593.487 72.3125 598.743 68.8182C604.027 65.2955 610.32 63.5341 617.621 63.5341C624.922 63.5341 631.2 65.2955 636.456 68.8182C641.74 72.3409 645.803 77.4545 648.643 84.1591C651.484 90.8352 652.891 98.9318 652.862 108.449C652.862 118.023 651.442 126.205 648.601 132.994C645.788 139.784 641.754 144.969 636.499 148.548C631.243 152.128 624.95 153.918 617.621 153.918ZM617.621 138.619C622.621 138.619 626.612 136.105 629.595 131.077C632.578 126.048 634.055 118.506 634.027 108.449C634.027 101.83 633.345 96.3182 631.982 91.9148C630.646 87.5114 628.743 84.2017 626.271 81.9858C623.828 79.7699 620.945 78.6619 617.621 78.6619C612.649 78.6619 608.672 81.1477 605.689 86.1193C602.706 91.0909 601.2 98.5341 601.172 108.449C601.172 115.153 601.839 120.75 603.175 125.239C604.538 129.699 606.456 133.051 608.928 135.295C611.399 137.511 614.297 138.619 617.621 138.619ZM664.698 136.659V122.128L701.133 64.7273H713.661V84.8409H706.246L683.278 121.19V121.872H735.053V136.659H664.698ZM706.587 152V132.227L706.928 125.793V64.7273H724.229V152H706.587Z" fill="#BBB7AE"/>
</svg>
