<svg width="40" height="40" viewBox="0 0 40 40" fill="none" xmlns="http://www.w3.org/2000/svg">
<g clip-path="url(#clip0_12_3)">
<path d="M20.0117 40.0073L27.3717 15.4394H12.6516L20.0116 40.0073H20.0117Z" fill="#E24329"/>
<path d="M20.0117 40.0071L12.6516 15.4393H2.33687L20.0117 40.0071Z" fill="#FC6D26"/>
<path d="M2.33687 15.4393L0.100312 22.9054C0.000867615 23.2373 0.000853896 23.5948 0.100273 23.9268C0.199692 24.2587 0.39344 24.5479 0.65375 24.7531L20.0117 40.0073L2.33672 15.4394L2.33687 15.4393Z" fill="#FCA326"/>
<path d="M2.33687 15.4394H12.6516L8.21891 0.642292C7.99078 -0.11913 6.99766 -0.118961 6.76969 0.642292L2.33687 15.4394Z" fill="#E24329"/>
<path d="M20.0117 40.0071L27.3717 15.4393H37.6866L20.0116 40.0071H20.0117Z" fill="#FC6D26"/>
<path d="M37.6866 15.4393L39.9231 22.9054C40.0226 23.2373 40.0225 23.5949 39.9231 23.9268C39.8236 24.2587 39.6299 24.548 39.3695 24.7531L20.0117 40.0073L37.6866 15.4394V15.4393Z" fill="#FCA326"/>
<path d="M37.6866 15.4394H27.3717L31.8045 0.642292C32.0327 -0.11913 33.0258 -0.118961 33.2538 0.642292L37.6866 15.4394Z" fill="#E24329"/>
</g>
<defs>
<clipPath id="clip0_12_3">
<rect width="40" height="40" fill="white"/>
</clipPath>
</defs>
</svg>
